<svg width="7" height="7" viewBox="0 0 7 7" fill="none" xmlns="http://www.w3.org/2000/svg">
<path d="M6.594 3.37656C6.594 3.16656 6.51 2.98456 6.342 2.84456C6.174 2.70456 5.978 2.62056 5.768 2.62056C5.488 2.62056 5.124 2.83056 4.69 3.23656C4.382 3.53056 4.046 3.75456 3.696 3.89456C3.724 3.50256 3.836 3.12456 4.004 2.76056C4.2 2.32656 4.312 2.01856 4.312 1.83656C4.312 1.59856 4.228 1.38856 4.088 1.22056C3.92 1.05256 3.724 0.968562 3.5 0.968562C3.262 0.968562 3.066 1.05256 2.912 1.22056C2.758 1.38856 2.688 1.59856 2.688 1.83656C2.688 2.01856 2.786 2.32656 2.996 2.76056C3.164 3.12456 3.262 3.50256 3.304 3.89456C2.94 3.75456 2.618 3.53056 2.31 3.23656C1.862 2.83056 1.512 2.62056 1.232 2.62056C1.008 2.62056 0.826 2.70456 0.658 2.84456C0.49 2.98456 0.406 3.16656 0.406 3.37656C0.406 3.65656 0.504 3.86656 0.7 4.02056C0.896 4.18856 1.134 4.25856 1.414 4.25856C1.484 4.25856 1.652 4.24456 1.904 4.21656C2.156 4.18856 2.352 4.17456 2.478 4.17456C2.688 4.17456 2.926 4.20256 3.178 4.24456C2.954 4.49656 2.632 4.74856 2.24 4.97256C1.904 5.16856 1.694 5.30856 1.582 5.40656C1.386 5.60256 1.288 5.84056 1.288 6.09256C1.288 6.31656 1.358 6.51256 1.512 6.65256C1.666 6.82056 1.862 6.89056 2.086 6.89056C2.576 6.89056 2.912 6.45656 3.08 5.58856C3.164 5.14056 3.304 4.76256 3.5 4.46856C3.682 4.76256 3.822 5.14056 3.92 5.58856C4.088 6.45656 4.41 6.89056 4.914 6.89056C5.138 6.89056 5.32 6.82056 5.488 6.65256C5.628 6.51256 5.712 6.31656 5.712 6.09256C5.712 5.84056 5.614 5.60256 5.418 5.40656C5.306 5.30856 5.082 5.16856 4.76 4.97256C4.354 4.74856 4.046 4.49656 3.822 4.24456C4.074 4.20256 4.298 4.17456 4.522 4.17456C4.634 4.17456 4.83 4.18856 5.096 4.21656C5.348 4.24456 5.502 4.25856 5.586 4.25856C5.852 4.25856 6.09 4.18856 6.3 4.02056C6.496 3.86656 6.594 3.65656 6.594 3.37656Z" fill="#DC1832"/>
</svg>
